<svg id="Lag_1" data-name="Lag 1" xmlns="http://www.w3.org/2000/svg" viewBox="0 0 129.89 63.85"><defs><style>.cls-1{fill:#fff;}</style></defs><title>praktikWhite</title><path class="cls-1" d="M17.27,35.18l-1.34.07a.28.28,0,0,1-.33-.32V25.46a.31.31,0,0,1,.33-.35l3.85-.19a2.48,2.48,0,0,1,1.9.57,2.43,2.43,0,0,1,.68,1.86v1.51a2.67,2.67,0,0,1-.68,1.93,2.72,2.72,0,0,1-1.9.77l-2,.1c-.13,0-.19.07-.19.18v3A.31.31,0,0,1,17.27,35.18Zm.5-5.26,1.67-.08a1,1,0,0,0,.71-.25,1,1,0,0,0,.21-.71V27.56a1,1,0,0,0-.21-.71.91.91,0,0,0-.71-.18l-1.67.09a.16.16,0,0,0-.17.18v2.82A.15.15,0,0,0,17.78,29.92Z"/><path class="cls-1" d="M33.18,34.38l-1.34.07a.27.27,0,0,1-.33-.31V24.67a.31.31,0,0,1,.33-.35l3.75-.19a2.53,2.53,0,0,1,1.92.58,2.43,2.43,0,0,1,.69,1.87v1.23a2.44,2.44,0,0,1-1.4,2.43v.06l1.69,3.43c.09.25,0,.38-.27.39l-1.28.06a1,1,0,0,1-.41,0,.45.45,0,0,1-.21-.26l-1.58-3.32-1.05.05c-.13,0-.19.07-.19.18V34A.31.31,0,0,1,33.18,34.38Zm.5-5.36,1.55-.08a1.12,1.12,0,0,0,.74-.25.91.91,0,0,0,.24-.7V26.76a.88.88,0,0,0-.24-.7,1,1,0,0,0-.74-.18L33.68,26a.16.16,0,0,0-.17.18v2.71A.15.15,0,0,0,33.68,29Z"/><path class="cls-1" d="M48.74,33.6l-1.51.08c-.19,0-.25-.1-.19-.32l2.49-9.59A.48.48,0,0,1,50,23.4l2.1-.1a.4.4,0,0,1,.47.31l2.49,9.34c.06.22,0,.33-.19.34l-1.51.08a.29.29,0,0,1-.23-.06A.48.48,0,0,1,53,33l-.44-1.71-3.07.15-.44,1.75a.51.51,0,0,1-.1.27A.32.32,0,0,1,48.74,33.6ZM51,25.26l-1.14,4.61,2.33-.12-1.14-4.49Z"/><path class="cls-1" d="M65.69,32.75l-1.34.07A.28.28,0,0,1,64,32.5V23a.31.31,0,0,1,.33-.35l1.34-.07a.28.28,0,0,1,.33.31v4.49h0a5.6,5.6,0,0,1,.49-1l2.39-3.63a.72.72,0,0,1,.62-.36l1.54-.08c.12,0,.19,0,.21.09s0,.15-.09.26l-3,4.29,3.34,5.06c.07.12.09.22,0,.29a.36.36,0,0,1-.29.12l-1.15.06a.74.74,0,0,1-.74-.29L67,28.49l-1,1.22V32.4A.31.31,0,0,1,65.69,32.75Z"/><path class="cls-1" d="M83.5,31.85l-1.32.07c-.23,0-.34-.09-.34-.31V23.71a.15.15,0,0,0-.17-.17l-1.79.09a.28.28,0,0,1-.33-.31V22.25a.31.31,0,0,1,.33-.35l6-.3a.28.28,0,0,1,.33.32V23a.31.31,0,0,1-.33.35L84,23.43c-.13,0-.19.07-.19.18V31.5A.31.31,0,0,1,83.5,31.85Z"/><path class="cls-1" d="M97,21.38v9.46a.31.31,0,0,1-.33.35l-1.34.07a.28.28,0,0,1-.33-.31V21.48a.31.31,0,0,1,.33-.35l1.34-.07A.28.28,0,0,1,97,21.38Z"/><path class="cls-1" d="M108.34,30.61l-1.34.07a.28.28,0,0,1-.33-.32V20.89a.31.31,0,0,1,.33-.35l1.34-.07a.28.28,0,0,1,.33.31v4.49h0a5.61,5.61,0,0,1,.49-1l2.4-3.63a.71.71,0,0,1,.61-.36l1.54-.08c.12,0,.18,0,.21.09s0,.15-.08.26l-3,4.3,3.34,5.06c.07.12.09.22,0,.29a.34.34,0,0,1-.29.12l-1.15.06a.74.74,0,0,1-.74-.29l-2.41-3.74-1,1.22v2.69A.31.31,0,0,1,108.34,30.61Z"/><path class="cls-1" d="M25.54,42.66l2.33-.12a.28.28,0,0,1,.33.31v9.47a.31.31,0,0,1-.33.35l-1.29.06a.28.28,0,0,1-.33-.31V45h-.06l-1.61,5.36a.41.41,0,0,1-.39.33l-1.32.06a.36.36,0,0,1-.39-.29l-1.64-5.21h-.06v7.48a.41.41,0,0,1-.06.26.39.39,0,0,1-.27.08l-1.29.07a.28.28,0,0,1-.33-.32V43.33a.31.31,0,0,1,.33-.35l2.35-.12a.28.28,0,0,1,.3.2l1.67,5.48h.09l1.69-5.64A.28.28,0,0,1,25.54,42.66Z"/><path class="cls-1" d="M38.55,52.13l-1.45.07c-.23,0-.3-.1-.21-.34l4.36-9.67a.58.58,0,0,1,.52-.36l6.28-.31c.21,0,.32.1.32.31v1.07a.3.3,0,0,1-.32.35l-3.29.16c-.13,0-.19.07-.19.18v2c0,.11.06.17.19.16l2.69-.13c.22,0,.33.09.33.32v1.07a.31.31,0,0,1-.33.35l-2.69.14c-.13,0-.19.07-.19.18v2.19c0,.11.06.17.19.16l3.29-.17c.21,0,.32.09.32.31v1.07a.3.3,0,0,1-.32.35l-5.15.26a.28.28,0,0,1-.33-.31V49.85l-2.8.14L39,51.78A.47.47,0,0,1,38.55,52.13Zm4-4V43.71h-.06l-2,4.5Z"/><path class="cls-1" d="M59.34,51.09,58,51.16a.28.28,0,0,1-.33-.32V41.38A.31.31,0,0,1,58,41l3.75-.19a2.51,2.51,0,0,1,1.92.58,2.43,2.43,0,0,1,.69,1.87v1.23A2.43,2.43,0,0,1,63,47V47l1.69,3.43c.09.25,0,.38-.27.39l-1.28.06a1,1,0,0,1-.41,0,.45.45,0,0,1-.21-.26l-1.58-3.32-1.05.05c-.13,0-.19.07-.19.18v3.23A.31.31,0,0,1,59.34,51.09Zm.5-5.36,1.54-.08a1.12,1.12,0,0,0,.74-.25.92.92,0,0,0,.24-.7V43.47a.89.89,0,0,0-.24-.7,1,1,0,0,0-.74-.18l-1.54.08a.16.16,0,0,0-.17.18v2.71A.15.15,0,0,0,59.84,45.73Z"/><path class="cls-1" d="M75.51,50.27l-1.34.07a.28.28,0,0,1-.33-.31V40.56a.31.31,0,0,1,.33-.35l1.34-.07a.28.28,0,0,1,.33.32V45h0a5.6,5.6,0,0,1,.49-1l2.39-3.63a.72.72,0,0,1,.61-.36l1.54-.08c.11,0,.18,0,.21.09s0,.15-.09.26l-3,4.29,3.34,5.06c.07.12.09.22,0,.29a.36.36,0,0,1-.29.12L80,50.05a.73.73,0,0,1-.74-.3L76.84,46l-1,1.22v2.69A.31.31,0,0,1,75.51,50.27Z"/><path class="cls-1" d="M95.67,49.26l-5.15.26a.28.28,0,0,1-.33-.32V39.74a.31.31,0,0,1,.33-.35l5.15-.26c.21,0,.32.09.32.31v1.07a.3.3,0,0,1-.32.35L92.38,41c-.13,0-.19.07-.19.18v2c0,.11.06.17.19.16l2.69-.13c.22,0,.33.09.33.31v1.07a.31.31,0,0,1-.33.35l-2.69.13c-.13,0-.19.07-.19.18v2.19c0,.12.06.17.19.16l3.29-.17q.32,0,.32.32v1.07A.3.3,0,0,1,95.67,49.26Z"/><path class="cls-1" d="M108.43,48.62l-1.32.07c-.23,0-.35-.09-.35-.31V40.49a.15.15,0,0,0-.17-.17l-1.8.09a.28.28,0,0,1-.33-.31V39a.31.31,0,0,1,.33-.35l6-.3a.28.28,0,0,1,.33.31v1.07a.31.31,0,0,1-.33.35L109,40.2c-.13,0-.19.07-.19.18v7.89A.31.31,0,0,1,108.43,48.62Z"/><polygon class="cls-1" points="23.25 11.35 22.62 11.38 21.96 14.2 22.76 14.16 23.25 11.35"/><polygon class="cls-1" points="24.87 11.27 24.34 11.3 23.85 14.11 24.54 14.07 24.87 11.27"/><polygon class="cls-1" points="26.48 11.19 26.06 11.21 25.73 14.01 26.31 13.99 26.48 11.19"/><polygon class="cls-1" points="28.07 11.11 27.76 11.13 27.6 13.92 28.07 13.9 28.07 11.11"/><polygon class="cls-1" points="19.99 11.51 19.15 11.55 18.14 14.39 19.15 14.34 19.99 11.51"/><polygon class="cls-1" points="13.84 11.82 12.32 14.68 13.68 14.62 15.03 11.76 13.84 11.82"/><polygon class="cls-1" points="16.69 11.68 15.62 11.73 14.27 14.58 15.51 14.52 16.69 11.68"/><polygon class="cls-1" points="18.34 11.6 17.39 11.64 16.21 14.49 17.34 14.43 18.34 11.6"/><polygon class="cls-1" points="21.63 11.43 20.89 11.47 20.05 14.3 20.96 14.25 21.63 11.43"/><polygon class="cls-1" points="111.03 6.97 112 9.71 113.01 9.66 111.88 6.93 111.03 6.97"/><polygon class="cls-1" points="112.56 6.9 113.68 9.63 114.78 9.57 113.5 6.85 112.56 6.9"/><polygon class="cls-1" points="102.02 7.42 101.73 7.44 101.73 10.22 102.18 10.2 102.02 7.42"/><polygon class="cls-1" points="114.06 6.82 115.35 9.54 116.54 9.48 115.1 6.77 114.06 6.82"/><polygon class="cls-1" points="115.56 6.75 117 9.46 127.1 8.96 127.1 54.73 2.78 60.93 2.78 15.16 11.83 14.71 13.35 11.85 0 12.51 0 63.85 129.89 57.37 129.89 6.03 115.56 6.75"/><polygon class="cls-1" points="109.51 7.05 110.32 9.79 111.23 9.75 110.26 7.01 109.51 7.05"/><polygon class="cls-1" points="103.69 7.34 103.3 7.36 103.47 10.14 104.02 10.11 103.69 7.34"/><polygon class="cls-1" points="105.35 7.26 104.86 7.28 105.19 10.05 105.83 10.02 105.35 7.26"/><polygon class="cls-1" points="108.63 7.09 107.97 7.13 108.62 9.88 109.44 9.84 108.63 7.09"/><polygon class="cls-1" points="107 7.17 106.42 7.2 106.91 9.96 107.64 9.93 107 7.17"/><path class="cls-1" d="M29.72,3.35V19.09l70.62-3.34V0Zm11.13,9.33a1.94,1.94,0,0,1-.5,1.4,2,2,0,0,1-1.39.55l-2.82.14a.2.2,0,0,1-.24-.23V7.68a.22.22,0,0,1,.24-.25L39,7.28a1.83,1.83,0,0,1,1.39.42,1.76,1.76,0,0,1,.5,1.35Zm6.56-4.8a.22.22,0,0,1-.23.25l-2.39.12c-.09,0-.14,0-.14.13V9.87c0,.08,0,.12.14.12l2-.1a.2.2,0,0,1,.24.23v.78a.23.23,0,0,1-.24.25l-2,.1c-.09,0-.14.05-.14.13V13c0,.09,0,.12.14.12L47.17,13c.15,0,.23.07.23.23V14a.22.22,0,0,1-.23.25l-3.74.19a.2.2,0,0,1-.24-.23V7.31a.22.22,0,0,1,.24-.25l3.74-.19c.15,0,.23.07.23.23Zm6.47,5.77a.22.22,0,0,1-.23.25l-3.76.19a.2.2,0,0,1-.24-.23V7a.23.23,0,0,1,.24-.25l1,0a.2.2,0,0,1,.24.23v5.72c0,.08,0,.13.14.12l2.41-.12c.15,0,.23.07.23.24Zm5.61-6.38a.22.22,0,0,1-.24.25l-1.3.06c-.09,0-.14,0-.14.13v5.73a.22.22,0,0,1-.24.25l-1,0c-.17,0-.25-.07-.25-.23V7.79c0-.09,0-.12-.13-.12l-1.3.07a.2.2,0,0,1-.24-.23V6.73a.23.23,0,0,1,.24-.25l4.32-.22a.2.2,0,0,1,.24.23Zm7.05,6-1.09.06a.22.22,0,0,1-.17,0,.33.33,0,0,1-.07-.18l-.32-1.24-2.23.11-.32,1.27a.38.38,0,0,1-.08.19.23.23,0,0,1-.16.06l-1.1.06c-.14,0-.18-.07-.14-.23l1.8-7A.35.35,0,0,1,63,6.08L64.53,6a.29.29,0,0,1,.34.22L66.68,13C66.73,13.16,66.68,13.24,66.54,13.25Zm7-5.5a.23.23,0,0,1-.24.26l-1,0c-.16,0-.24-.07-.24-.24V7.55A.71.71,0,0,0,71.93,7a.67.67,0,0,0-.51-.13l-.75,0a.73.73,0,0,0-.5.18.75.75,0,0,0-.16.53v3.49a.69.69,0,0,0,.16.51.65.65,0,0,0,.5.13l.75,0a.73.73,0,0,0,.51-.18.77.77,0,0,0,.15-.53v-.72A.11.11,0,0,0,72,10.2l-.68,0A.2.2,0,0,1,71,10V9.23A.22.22,0,0,1,71.27,9l2-.1a.22.22,0,0,1,.26.25V11a1.94,1.94,0,0,1-.49,1.4,2,2,0,0,1-1.38.56l-1.21.06a1.83,1.83,0,0,1-1.4-.41,1.77,1.77,0,0,1-.49-1.36V7.66A1.94,1.94,0,0,1,69,6.25a2,2,0,0,1,1.4-.55l1.21-.06A1.81,1.81,0,0,1,73,6.06a1.78,1.78,0,0,1,.49,1.35Zm6.55-1.52a.22.22,0,0,1-.23.25l-2.39.12c-.09,0-.14,0-.14.13V8.23c0,.08,0,.12.14.12l2-.1a.2.2,0,0,1,.24.23v.78a.22.22,0,0,1-.24.25l-2,.1c-.09,0-.14,0-.14.13v1.59c0,.08,0,.12.14.12l2.39-.12c.15,0,.23.07.23.23v.78a.22.22,0,0,1-.23.25l-3.74.19a.2.2,0,0,1-.24-.23V5.67a.22.22,0,0,1,.24-.25l3.74-.19c.15,0,.23.07.23.23Zm7.11,6-.93,0a.7.7,0,0,1-.3,0,.32.32,0,0,1-.15-.19L84.68,9.63l-.77,0c-.09,0-.14,0-.14.13v2.34a.23.23,0,0,1-.24.25l-1,0a.2.2,0,0,1-.24-.23V5.35a.22.22,0,0,1,.24-.25L85.29,5a1.84,1.84,0,0,1,1.4.42,1.77,1.77,0,0,1,.5,1.36v.89a1.77,1.77,0,0,1-1,1.77v0l1.22,2.49C87.46,12.11,87.4,12.2,87.19,12.21Zm6.21-.55a.22.22,0,0,1-.24.25L92,12a.2.2,0,0,1-.24-.23V4.86A.22.22,0,0,1,92,4.61l1.17,0c.16,0,.24.07.24.23Z"/><polygon class="cls-1" points="63.75 7.42 62.93 10.77 64.62 10.68 63.8 7.42 63.75 7.42"/><path class="cls-1" d="M85,6.23l-1.12.06a.12.12,0,0,0-.13.13v2a.11.11,0,0,0,.13.12L85,8.45a.82.82,0,0,0,.54-.18.68.68,0,0,0,.17-.5V6.87a.67.67,0,0,0-.17-.51A.76.76,0,0,0,85,6.23"/><path class="cls-1" d="M38.72,8.55l-1.24.06a.12.12,0,0,0-.13.13v4.59c0,.08,0,.12.13.12l1.24-.06a.76.76,0,0,0,.52-.18.75.75,0,0,0,.15-.53V9.19a.69.69,0,0,0-.15-.52.7.7,0,0,0-.52-.13"/></svg>